<?xml version="1.0"?><svg version="1.2" baseProfile="tiny-ps" viewBox="0 0 256 256" xmlns="http://www.w3.org/2000/svg" xmlns:xlink="http://www.w3.org/1999/xlink"><title>ATIP Canada Services</title><desc>ATIP Canada Services - Secure Canadian immigration document access</desc><g><g fill="#fefefd" transform="matrix(.1 0 0 -.1 0 256)"><path d="M0 1280V0h2560v2560H0V1280z"/></g><g fill="#e3e3e2" transform="matrix(.1 0 0 -.1 0 256)"><path d="M1245 2354c-16-14-67-47-112-75-210-128-430-201-693-229-58-6-107-14-110-17-3-2-5-116-5-251v-247l13-95c31-219 95-447 169-594 20-39 63-111 96-161l61-90 111-110 110-110 105-71c58-39 147-93 198-120l93-49 77 40c42 22 131 75 197 119l120 80 106 105c58 59 129 138 157 176l52 70 60 120 60 120 29 93c32 100 63 242 83 387l13 90v247c0 135-2 249-5 251-3 3-52 11-110 17-195 21-415 82-565 158-70 35-193 110-236 144-20 15-38 28-40 28-2-1-17-12-34-26zm-27-486c-35-66-69-122-75-125l-13-5-56 32c-31 17-59 29-62 25-3-3 9-87 26-188 18-100 32-188 32-194 0-29-30-8-104 77-44 50-82 90-86 90s-13-21-21-47l-15-48-24-3c-14-1-61 6-105 16l-80 19-3-12c-2-7 8-53 23-103 14-50 25-101 25-112v-22l-40-15c-22-9-40-19-40-23s64-59 143-123c221-178 208-161 181-241-9-26-13-50-10-53 3-4 70 3 149 15 78 12 153 22 166 22h24l-8-175-7-175h42V330l-57 29c-32 16-98 58-147 92l-90 64-91 90-92 90-50 75c-124 186-197 382-238 645l-16 100-6 188-6 187h37c153 0 516 127 696 243l55 36 3-90 3-90-63-121z"/></g><g fill="#aaa1a9" transform="matrix(.1 0 0 -.1 0 256)"><path d="M1210 2324c-36-24-117-71-180-103-193-99-338-142-560-170l-135-16-8-105-8-105 6-154 6-155 19-125c83-567 340-938 832-1201l98-52 93 50c120 63 231 137 333 223l81 68 78 92c92 109 126 162 188 285 82 163 138 363 169 604l12 95v215c0 118-3 227-7 242l-7 26-77 7c-43 4-134 18-202 31l-124 25-96 36c-126 47-248 108-351 177-45 31-86 56-89 56s-35-21-71-46zm132-188c29-18 86-50 126-70l72-36v-19c0-17 95-212 143-293l22-37 23-10c35-16 63-14 192 19 65 17 126 30 134 30h16v-53c0-79-27-294-50-399-59-264-163-468-329-641l-76-80-102-76c-56-42-131-92-167-111l-65-34-38 18c-21 10-81 46-134 81l-96 64-100 96-101 95-60 87c-77 114-122 205-165 334-64 193-97 411-97 647v142h31c50 0 220 38 320 71 106 35 311 131 379 177 25 17 51 31 57 31 7 1 36-14 65-33zm481-344-98-3-17 22-18 21v193l115-115 115-115-97-3zm-576 126c-19-35-47-87-61-116l-27-53-16-6-16-6-58 32-59 32v-13c0-7 16-94 34-193 19-99 32-183 29-187-2-5-10-8-18-8h-14l-73 83c-40 45-78 84-83 85l-10 4-14-46-14-45-14-5-14-6-89 22c-49 12-92 19-95 16s8-54 24-114l30-108-10-12c-5-6-23-17-39-24-17-7-30-16-30-20 0-5 74-70 165-145l165-136v-23c0-13-7-43-15-66-8-24-13-45-11-47s75 7 162 21l159 24 12-10 12-10-4-26c-2-15-6-89-9-164l-6-138h81l-7 170-7 170h36c20 0 96-9 168-21 72-11 133-18 136-15s-2 26-11 52-16 55-16 65v17l170 139 169 138-14 10c-7 6-27 18-44 27l-30 16 30 112c16 62 28 115 25 118s-45-4-93-15l-88-20-16 8-16 8-13 46c-7 25-16 44-20 43-3-2-41-42-84-90l-77-88h-29v24c0 13 13 95 30 182 16 88 30 167 30 177v19l-56-32-56-31-16 3-16 3-62 118-61 119-36-64z"/></g><g fill="#d93631" transform="matrix(.1 0 0 -.1 0 256)"><path d="m1205 2318-70-50-130-63-130-63-99-32c-112-35-302-70-381-70h-53l-7-66-8-66 6-217 5-216 17-100c44-276 129-506 258-695l51-75 116-115 115-116 105-70c58-38 144-90 192-114l87-45 78 38c43 22 129 72 190 113l113 75 91 87c251 238 381 496 450 887l21 120 5 221 6 221-7 66-8 67h-48c-26 0-103 9-171 21l-124 20-105 35c-138 46-289 119-401 193-50 34-91 61-92 60-1 0-33-23-72-51zm151-185c43-27 123-68 176-93l98-45v-180l13-24c6-13 24-33 39-44l27-20h361v-83c0-181-54-456-122-626-110-274-321-505-605-664l-63-36-58 33c-94 53-192 122-279 198l-81 70-64 80c-187 233-281 514-308 914l-10 152 6 61 6 61 97 16c108 18 243 55 341 94 82 32 264 125 310 157 19 14 35 25 36 26 0 0 36-21 80-47zm467-341-108-3-12 18-13 17v211l120-120 120-120-107-3zm-601 73c-30-58-60-112-68-120l-15-15-61 31c-33 17-61 29-63 27s12-88 32-191l35-189-10-10-10-10-15 8c-8 5-47 46-87 92l-73 83-7-8c-4-4-13-25-20-46l-12-38-14-6-13-5-91 21c-51 12-93 21-95 21s9-48 25-107c16-60 30-114 30-120v-13l-40-20c-22-11-40-22-40-24s55-48 123-102c67-55 141-116 165-138l42-39v-26c0-14-7-44-14-66-8-22-13-41-13-41 1-1 73 9 160 23l159 24 15-5 14-6-6-137c-3-76-8-153-11-170l-5-33h83l-6 58c-3 31-8 108-12 169l-6 113 15 6 15 5 158-24c88-14 160-24 162-22 1 1-5 21-13 45-8 23-15 53-15 65v23l63 54c34 30 108 92 165 137 56 46 102 85 102 87s-18 13-40 24l-40 20v13c1 6 14 59 30 117 15 58 27 106 26 107-2 2-44-6-94-18l-91-21-15 5-16 6-11 46c-6 25-15 45-19 45s-40-37-80-82c-40-46-79-87-87-92l-15-8-9 9-10 10 35 189c19 104 33 190 31 192-1 2-26-8-54-22s-58-26-68-26h-18l-60 115c-33 63-62 115-65 115s-29-47-58-105z"/></g><g fill="#b32c2b" transform="matrix(.1 0 0 -.1 0 256)"><path d="m1205 2318-70-50-130-63-130-63-99-32c-112-35-302-70-381-70h-53l-7-66-8-66 6-217 5-216 17-100c44-276 129-506 258-695l51-75 116-115 115-116 105-70c58-38 144-90 192-114l87-45 78 38c43 22 129 72 190 113l113 75 91 87c251 238 381 496 450 887l21 120 5 221 6 221-7 66-8 67h-48c-26 0-103 9-171 21l-124 20-105 35c-138 46-289 119-401 193-50 34-91 61-92 60-1 0-33-23-72-51zm151-185c43-27 123-68 176-93l98-45v-180l13-24c6-13 24-33 39-44l27-20h361v-83c0-181-54-456-122-626-110-274-321-505-605-664l-63-36-58 33c-94 53-192 122-279 198l-81 70-64 80c-187 233-281 514-308 914l-10 152 6 61 6 61 97 16c108 18 243 55 341 94 82 32 264 125 310 157 19 14 35 25 36 26 0 0 36-21 80-47zm467-341-108-3-12 18-13 17v211l120-120 120-120-107-3zm-543-549V510h41l-5 32c-3 18-7 96-8 173l-3 140 55-2c30-2 107-11 171-21l117-19-14 40c-15 43-18 86-6 103 4 5 72 64 152 129s151 124 159 131l14 12-43 22-42 22 5 31c3 18 17 72 31 120l25 89-12-5c-7-2-49-12-94-22l-82-18-14 6-15 6-12 38c-7 21-16 42-20 46l-7 8-78-91-79-90h-13c-8 0-16 6-19 13-3 8 11 96 29 198 19 101 33 186 31 188-1 2-27-11-57-28l-55-31-15 6-15 5-61 117-60 117-1-732z"/></g><g fill="#20355b" transform="matrix(.1 0 0 -.1 0 256)"><path d="m1205 2318-70-50-130-63-130-63-99-32c-112-35-302-70-381-70h-53l-7-66-8-66 6-217 5-216 17-100c44-276 129-506 258-695l51-75 116-115 115-116 105-70c58-38 144-90 192-114l87-45 78 38c43 22 129 72 190 113l113 75 91 87c251 238 381 496 450 887l21 120 5 221 6 221-7 66-8 67h-48c-26 0-103 9-171 21l-124 20-105 35c-138 46-289 119-401 193-50 34-91 61-92 60-1 0-33-23-72-51zm151-185c43-27 123-68 176-93l98-45v-180l13-24c6-13 24-33 39-44l27-20h361v-83c0-181-54-456-122-626-110-274-321-505-605-664l-63-36-58 33c-94 53-192 122-279 198l-81 70-64 80c-187 233-281 514-308 914l-10 152 6 61 6 61 97 16c108 18 243 55 341 94 82 32 264 125 310 157 19 14 35 25 36 26 0 0 36-21 80-47zm467-341-108-3-12 18-13 17v211l120-120 120-120-107-3z"/></g></g></svg>